<svg width="450" height="100" viewBox="0 0 450 100" fill="none" xmlns="http://www.w3.org/2000/svg">
<ellipse cx="30.1962" cy="50" rx="8.80271" ry="8.99" fill="black"/>
<path d="M51.9636 28.3897C47.6458 23.98 42.1262 21.0028 36.1257 19.84706C30.1252 18.69128 23.9228 19.41063 18.3289 21.9111C12.735 24.4117 8.00959 28.5771 4.76997 33.8633C1.53034 39.1494 -0.0728621 45.3106 0.169789 51.5419C0.412439 57.7732 2.48966 63.7848 6.1301 68.7916C9.77054 73.7983 14.8049 77.5673 20.5756 79.6063C26.3463 81.6452 32.585 81.8593 38.4766 80.2205C44.3683 78.5817 49.6391 75.1662 53.6003 70.4203L41.5189 59.9027C39.6294 62.1665 37.1152 63.7957 34.3049 64.5774C31.4945 65.3591 28.5187 65.257 25.766 64.2844C23.0134 63.3118 20.612 61.514 18.8755 59.1258C17.139 56.7375 16.1481 53.8699 16.0324 50.8976C15.9166 47.9253 16.6814 44.9864 18.2267 42.4649C19.772 39.9433 22.026 37.9564 24.6944 36.7637C27.3627 35.5709 30.3212 35.2278 33.1834 35.7791C36.0457 36.3304 38.6786 37.7505 40.7382 39.8539L51.9636 28.3897Z" fill="black"/>
<g transform="translate(-54, -16) scale(2, 2)">
<path d="M66.163 37.49C66.883 38.228 67.756 38.597 68.782 38.597C69.8081 38.597 70.6721 38.228 71.3741 37.49C72.0941 36.752 72.4541 35.726 72.4541 34.412C72.4541 33.116 72.0941 32.108 71.3741 31.388C70.6721 30.65 69.8081 30.281 68.782 30.281C67.756 30.281 66.883 30.65 66.163 31.388C65.461 32.108 65.1101 33.116 65.1101 34.412C65.1101 35.708 65.461 36.734 66.163 37.49ZM68.782 27.446C70.7621 27.446 72.3911 28.103 73.6691 29.417C74.9651 30.731 75.6131 32.396 75.6131 34.412C75.6131 36.428 74.9651 38.102 73.6691 39.434C72.3911 40.748 70.7621 41.405 68.782 41.405C66.82 41.405 65.191 40.748 63.895 39.434C62.617 38.102 61.978 36.428 61.978 34.412C61.978 32.396 62.617 30.731 63.895 29.417C65.191 28.103 66.82 27.446 68.782 27.446ZM80.9348 46.13H77.8298V27.851H80.8538V29.633C81.1958 29.039 81.7358 28.544 82.4738 28.148C83.2118 27.752 84.0668 27.554 85.0388 27.554C86.9288 27.554 88.4138 28.202 89.4938 29.498C90.5738 30.776 91.1138 32.414 91.1138 34.412C91.1138 36.41 90.5468 38.066 89.4128 39.38C88.2788 40.676 86.7848 41.324 84.9308 41.324C84.0308 41.324 83.2298 41.153 82.5278 40.811C81.8258 40.469 81.2948 40.037 80.9348 39.515V46.13ZM87.9818 34.412C87.9818 33.188 87.6578 32.207 87.0098 31.469C86.3618 30.713 85.5068 30.335 84.4448 30.335C83.4008 30.335 82.5458 30.713 81.8798 31.469C81.2318 32.207 80.9078 33.188 80.9078 34.412C80.9078 35.654 81.2318 36.653 81.8798 37.409C82.5458 38.165 83.4008 38.543 84.4448 38.543C85.4888 38.543 86.3348 38.165 86.9828 37.409C87.6488 36.653 87.9818 35.654 87.9818 34.412ZM95.5017 32.981H101.955C101.919 32.153 101.622 31.46 101.064 30.902C100.524 30.344 99.7407 30.065 98.7147 30.065C97.7787 30.065 97.0227 30.362 96.4467 30.956C95.8707 31.532 95.5557 32.207 95.5017 32.981ZM102.306 36.41L104.952 37.247C104.574 38.453 103.863 39.452 102.819 40.244C101.793 41.018 100.524 41.405 99.0117 41.405C97.1397 41.405 95.5467 40.766 94.2327 39.488C92.9367 38.21 92.2887 36.5 92.2887 34.358C92.2887 32.342 92.9187 30.686 94.1787 29.39C95.4567 28.094 96.9597 27.446 98.6877 27.446C100.704 27.446 102.279 28.067 103.413 29.309C104.547 30.533 105.114 32.189 105.114 34.277C105.114 34.835 105.087 35.168 105.033 35.276H95.4207C95.4567 36.266 95.8167 37.085 96.5007 37.733C97.2027 38.381 98.0397 38.705 99.0117 38.705C100.704 38.705 101.802 37.94 102.306 36.41ZM110.429 33.413V41H107.297V27.851H110.348V29.606C110.762 28.886 111.311 28.355 111.995 28.013C112.697 27.653 113.444 27.473 114.236 27.473C115.784 27.473 116.963 27.959 117.773 28.931C118.583 29.903 118.988 31.154 118.988 32.684V41H115.856V33.224C115.856 32.342 115.64 31.64 115.208 31.118C114.776 30.578 114.092 30.308 113.156 30.308C112.292 30.308 111.617 30.605 111.131 31.199C110.663 31.775 110.429 32.513 110.429 33.413ZM127.715 30.335C126.707 30.335 125.852 30.704 125.15 31.442C124.448 32.162 124.097 33.152 124.097 34.412C124.097 35.69 124.448 36.698 125.15 37.436C125.87 38.174 126.743 38.543 127.769 38.543C128.687 38.543 129.416 38.3 129.956 37.814C130.514 37.31 130.883 36.743 131.063 36.113L133.817 37.112C133.457 38.282 132.755 39.29 131.711 40.136C130.685 40.982 129.371 41.405 127.769 41.405C125.843 41.405 124.223 40.739 122.909 39.407C121.613 38.075 120.965 36.41 120.965 34.412C120.965 32.396 121.604 30.731 122.882 29.417C124.178 28.103 125.78 27.446 127.688 27.446C129.326 27.446 130.658 27.869 131.684 28.715C132.728 29.561 133.403 30.578 133.709 31.766L130.901 32.792C130.721 32.108 130.37 31.532 129.848 31.064C129.344 30.578 128.633 30.335 127.715 30.335ZM138.815 37.49C139.535 38.228 140.408 38.597 141.434 38.597C142.46 38.597 143.324 38.228 144.026 37.49C144.746 36.752 145.106 35.726 145.106 34.412C145.106 33.116 144.746 32.108 144.026 31.388C143.324 30.65 142.46 30.281 141.434 30.281C140.408 30.281 139.535 30.65 138.815 31.388C138.113 32.108 137.762 33.116 137.762 34.412C137.762 35.708 138.113 36.734 138.815 37.49ZM141.434 27.446C143.414 27.446 145.043 28.103 146.321 29.417C147.617 30.731 148.265 32.396 148.265 34.412C148.265 36.428 147.617 38.102 146.321 39.434C145.043 40.748 143.414 41.405 141.434 41.405C139.472 41.405 137.843 40.748 136.547 39.434C135.269 38.102 134.63 36.428 134.63 34.412C134.63 32.396 135.269 30.731 136.547 29.417C137.843 28.103 139.472 27.446 141.434 27.446ZM153.614 41H150.482V21.452H153.614V41ZM159.976 41H156.844V21.452H159.976V41ZM165.393 32.981H171.846C171.81 32.153 171.513 31.46 170.955 30.902C170.415 30.344 169.632 30.065 168.606 30.065C167.67 30.065 166.914 30.362 166.338 30.956C165.762 31.532 165.447 32.207 165.393 32.981ZM172.197 36.41L174.843 37.247C174.465 38.453 173.754 39.452 172.71 40.244C171.684 41.018 170.415 41.405 168.903 41.405C167.031 41.405 165.438 40.766 164.124 39.488C162.828 38.21 162.18 36.5 162.18 34.358C162.18 32.342 162.81 30.686 164.07 29.39C165.348 28.094 166.851 27.446 168.579 27.446C170.595 27.446 172.17 28.067 173.304 29.309C174.438 30.533 175.005 32.189 175.005 34.277C175.005 34.835 174.978 35.168 174.924 35.276H165.312C165.348 36.266 165.708 37.085 166.392 37.733C167.094 38.381 167.931 38.705 168.903 38.705C170.595 38.705 171.693 37.94 172.197 36.41ZM182.912 30.335C181.904 30.335 181.049 30.704 180.347 31.442C179.645 32.162 179.294 33.152 179.294 34.412C179.294 35.69 179.645 36.698 180.347 37.436C181.067 38.174 181.94 38.543 182.966 38.543C183.884 38.543 184.613 38.3 185.153 37.814C185.711 37.31 186.08 36.743 186.26 36.113L189.014 37.112C188.654 38.282 187.952 39.29 186.908 40.136C185.882 40.982 184.568 41.405 182.966 41.405C181.04 41.405 179.42 40.739 178.106 39.407C176.81 38.075 176.162 36.41 176.162 34.412C176.162 32.396 176.801 30.731 178.079 29.417C179.375 28.103 180.977 27.446 182.885 27.446C184.523 27.446 185.855 27.869 186.881 28.715C187.925 29.561 188.6 30.578 188.906 31.766L186.098 32.792C185.918 32.108 185.567 31.532 185.045 31.064C184.541 30.578 183.83 30.335 182.912 30.335ZM194.954 23.828V27.851H197.681V30.632H194.954V36.734C194.954 37.31 195.089 37.733 195.359 38.003C195.629 38.255 196.052 38.381 196.628 38.381C196.988 38.381 197.348 38.345 197.708 38.273V40.865C197.24 41.063 196.601 41.162 195.791 41.162C194.567 41.162 193.604 40.82 192.902 40.136C192.2 39.434 191.849 38.471 191.849 37.247V30.632H189.419V27.851H190.094C190.76 27.851 191.264 27.662 191.606 27.284C191.948 26.906 192.119 26.411 192.119 25.799V23.828H194.954ZM203.194 41H200.089V27.851H203.194V41ZM200.197 24.665C199.801 24.269 199.603 23.792 199.603 23.234C199.603 22.676 199.801 22.199 200.197 21.803C200.593 21.389 201.07 21.182 201.628 21.182C202.204 21.182 202.69 21.38 203.086 21.776C203.482 22.172 203.68 22.658 203.68 23.234C203.68 23.792 203.482 24.269 203.086 24.665C202.69 25.061 202.204 25.259 201.628 25.259C201.07 25.259 200.593 25.061 200.197 24.665ZM209.584 37.49C210.304 38.228 211.177 38.597 212.203 38.597C213.229 38.597 214.093 38.228 214.795 37.49C215.515 36.752 215.875 35.726 215.875 34.412C215.875 33.116 215.515 32.108 214.795 31.388C214.093 30.65 213.229 30.281 212.203 30.281C211.177 30.281 210.304 30.65 209.584 31.388C208.882 32.108 208.531 33.116 208.531 34.412C208.531 35.708 208.882 36.734 209.584 37.49ZM212.203 27.446C214.183 27.446 215.812 28.103 217.09 29.417C218.386 30.731 219.034 32.396 219.034 34.412C219.034 36.428 218.386 38.102 217.09 39.434C215.812 40.748 214.183 41.405 212.203 41.405C210.241 41.405 208.612 40.748 207.316 39.434C206.038 38.102 205.399 36.428 205.399 34.412C205.399 32.396 206.038 30.731 207.316 29.417C208.612 28.103 210.241 27.446 212.203 27.446ZM224.382 33.413V41H221.25V27.851H224.301V29.606C224.715 28.886 225.264 28.355 225.948 28.013C226.65 27.653 227.397 27.473 228.189 27.473C229.737 27.473 230.916 27.959 231.726 28.931C232.536 29.903 232.941 31.154 232.941 32.684V41H229.809V33.224C229.809 32.342 229.593 31.64 229.161 31.118C228.729 30.578 228.045 30.308 227.109 30.308C226.245 30.308 225.57 30.605 225.084 31.199C224.616 31.775 224.382 32.513 224.382 33.413Z" fill="black"/>
</g>
</svg>
